        <svg
          fill="none"
          height="32"
          viewBox="0 0 24 32"
          width="24"
          xmlns="http://www.w3.org/2000/svg"
        >
          <path
            d="M20.9921 0.780502H2.09844C0.937356 0.780502 0 1.72172 0 2.87895V19.6742C0 26.0505 5.16896 31.2195 11.5453 31.2195C17.9216 31.2195 23.0906 26.0505 23.0906 19.6742V2.87895C23.0906 1.71786 22.1532 0.780502 20.9921 0.780502ZM22.0414 19.6742C22.0414 25.4719 17.343 30.1703 11.5453 30.1703C5.74757 30.1703 1.04922 25.4719 1.04922 19.6742V2.87895C1.04922 2.29647 1.51983 1.82972 2.09844 1.82972H20.9921C21.5708 1.82972 22.0414 2.30033 22.0414 2.87895V19.6742Z"
            fill="#B89D1B"
          />
          <path
            d="M6.29532 2.87907H4.20459L6.29532 5.20124V2.87907Z"
            fill="#CC142E"
          />
          <path
            d="M6.29517 4.97751V2.87907H8.39361V7.53499L6.29517 5.20124V4.97751Z"
            fill="#FECD00"
          />
          <path
            d="M8.3938 2.87907H10.4961V9.86874L8.3938 7.53499V2.87907Z"
            fill="#CC142E"
          />
          <path
            d="M10.4961 2.87907H12.5945V12.2025L10.4961 9.86874V2.87907Z"
            fill="#FECD00"
          />
          <path
            d="M12.5945 2.87907H14.6929V14.5401L12.5945 12.2025V2.87907Z"
            fill="#CC142E"
          />
          <path
            d="M14.6931 13.9036V2.87907H16.7954V15.4774V16.87L14.6931 14.5401V13.9036Z"
            fill="#FECD00"
          />
          <path
            d="M16.7915 2.87907H18.8938V19.2037L16.7915 16.87V2.87907Z"
            fill="#CC142E"
          />
          <path
            d="M18.8938 19.2076V2.87907H20.9922V19.6743C20.9922 20.2529 20.9382 20.82 20.8418 21.3677L18.8938 19.2076Z"
            fill="#FECD00"
          />
          <path
            d="M2.09863 19.6896C2.09863 21.9385 2.88555 24.0061 4.19708 25.6301V11.0721L2.09863 8.74996V19.6896Z"
            fill="#FECD00"
          />
          <path
            d="M4.19678 11.0723V25.6302C4.79468 26.3709 5.50445 27.0189 6.29522 27.5474V13.3752L4.19678 11.0723Z"
            fill="#CC142E"
          />
          <path
            d="M6.29517 13.375V27.5433C6.94321 27.9753 7.64527 28.3341 8.39361 28.5964V15.6778L6.29517 13.375Z"
            fill="#FECD00"
          />
          <path
            d="M8.3938 28.581C9.06113 28.8163 9.76705 28.9822 10.4922 29.0593V17.9846L8.3938 15.6817V28.581Z"
            fill="#CC142E"
          />
          <path
            d="M10.4961 27.5474V29.0634C10.8394 29.102 11.1904 29.1213 11.5453 29.1213C11.9002 29.1213 12.2512 29.102 12.5945 29.0634V20.2916L10.4961 17.9849V27.5474Z"
            fill="#FECD00"
          />
          <path
            d="M14.6929 22.6021L12.5945 20.2953V29.0633C13.3235 28.9823 14.0256 28.8202 14.6929 28.5849V22.6021Z"
            fill="#CC142E"
          />
          <path
            d="M14.6931 28.5811C15.4415 28.3188 16.1435 27.9601 16.7916 27.528V24.9089L14.6931 22.6021V28.5811Z"
            fill="#FECD00"
          />
          <path
            d="M16.7915 24.9089V27.5319C17.2814 27.2041 17.7404 26.8299 18.1609 26.4171L16.7915 24.9089Z"
            fill="#CC142E"
          />
          <path
            d="M18.8939 25.6148C19.6191 24.7199 20.1784 23.6899 20.541 22.5674L19.4301 21.3485L2.71582 2.88294H2.09863V7.14926C2.09863 7.14926 18.4657 25.1673 18.4657 25.1635L18.8862 25.6187L18.8939 25.6148Z"
            fill="#00508B"
          />
        </svg>
